- 
http://www.torrentkit.com        thanks for supporting with server cost,  
http://www.torrentkit.com       the fast  and The Hottest Private Tracker on the net

Please Seed back to make the speed Faster!!!

and don't forget to visit      ...... www.torrentkit.com..........
-[img]http://img571.imageshack.us/img571/9281/megaminduk400.jpg[/img]

[color=blue][size=5][b]Megamind 2010 BDRip XVID AC3 HQ Hive-CM8[/b][/size][/color]



[b]Thx Hive

CM8 Doing It Right The First Time :D

Why download a touched up rip of a rip BRrip
Get the real deal BDRip
Enjoy

Source US Bluray

Video: 720x304 @bitrate 2000 2pass
Audio: True HD AC3 640 to AC3 5.1 @448
Sample: yes included
Subs: yes english in /srt[/b]
 
http://www.imdb.com/title/tt1001526/


General
Complete name                    : Megamind.2010.BDRip.XVID.AC3.HQ.Hive-CM8.avi
Format                           : AVI
Format/Info                      : Audio Video Interleave
File size                        : 1.64 GiB
Duration                         : 1h 35mn
Overall bit rate                 : 2 458 Kbps
Writing application              : Nandub v1.0rc2
Writing library                  : Nandub build 1853/release

Video
ID                               : 0
Format                           : MPEG-4 Visual
Format profile                   : Advanced Simple@L5
Format settings, BVOP            : Yes
Format settings, QPel            : Yes
Format settings, GMC             : No warppoints
Format settings, Matrix          : Default (H.263)
Muxing mode                      : Packed bitstream
Codec ID                         : XVID
Codec ID/Hint                    : XviD
Duration                         : 1h 35mn
Bit rate                         : 2 001 Kbps
Width                            : 720 pixels
Height                           : 304 pixels
Display aspect ratio             : 2.35:1
Frame rate                       : 23.976 fps
Color space                      : YUV
Chroma subsampling               : 4:2:0
Bit depth                        : 8 bits
Scan type                        : Progressive
Bits/(Pixel*Frame)               : 0.381
Stream size                      : 1.34 GiB (81%)
Writing library                  : XviD 1.2.1 (UTC 2008-12-04)

Audio
ID                               : 1
Format                           : AC-3
Format/Info                      : Audio Coding 3
Mode extension                   : CM (complete main)
Codec ID                         : 2000
Duration                         : 1h 35mn
Bit rate mode                    : Constant
Bit rate                         : 448 Kbps
Channel(s)                       : 6 channels
Channel positions                : Front: L C R, Side: L R, LFE
Sampling rate                    : 48.0 KHz
Bit depth                        : 16 bits
Stream size                      : 306 MiB (18%)
Alignment                        : Split accross interleaves
Interleave, duration             : 42 ms (1.00 video frame)
Interleave, preload duration     : 500 ms



Will Ferrell  ...  Megamind (voice)  
Brad Pitt  ...  Metro Man (voice)  
Tina Fey  ...  Roxanne Ritchie (voice)  
Jonah Hill  ...  Tighten (voice)  
David Cross  ...  Minion (voice)  
Justin Theroux  ...  Megamind's Father (voice)  
Ben Stiller  ...  Bernard (voice)  
Jessica Schulte  ...  Megamind's Mother (voice)  
Tom McGrath  ...  Lord Scott / Prison Guard (voice)   



After super-villain Megamind (Ferrell) kills his good-guy nemesis, Metro Man (Pitt), 
he becomes bored since there is no one left to fight. He creates a new foe, Titan (Hill), 
who, instead of using his powers for good, sets out to destroy the world, positioning Megamind 
to save the day for the first time in his life.
 


[img]http://img96.imageshack.us/img96/8967/megp.png[/img]
[img]http://img98.imageshack.us/img98/6029/memegg.png[/img]
[img]http://img200.imageshack.us/img200/1517/memegmegg.png[/img]
[img]http://img259.imageshack.us/img259/8434/memegmegmegg.png[/img]
[img]http://img716.imageshack.us/img716/1125/memegmegmemeggg.png[/img]
[img]http://img146.imageshack.us/img146/4619/memegmegmememegggg.png[/img]
[img]http://img694.imageshack.us/img694/4193/memegmegmememeggmeggg.png[/img]






Greetz

iNK,LUSi,,MAGNET,CLASSiFiED,THC,LEGi0N,T0XiC,IMAGiNE,ViSiON,WBZ,FLAWL3SS,NOVA
Vik,Rapeseed,D2U,SAFC,goldadvance,MEMORY100,KaN1vE,Unevano,Pinnz,Wayne,Mr Hive
and all P2P groups 
Great Work Guys :D